<svg xmlns="http://www.w3.org/2000/svg" width="466.155" height="297" viewBox="0 0 466.155 297">
  <path id="canadaArtboard_1" data-name="canadaArtboard 1" d="M19.778,297,0,278.2s28.046,6.041,27-22.545S3.375,177.019,3.375,177.019s41.209,21.465,65.407,13.736,20.891-40.129,20.891-40.129l58.219,64.327s7.695,12.656,16.5,6.75,2.194-19.811,2.194-19.811L140.2,64.868l43.436,27S189,97.3,194.063,87.952,234.191,0,234.191,0l41.242,90.72s2.194,6.041,11,1.08,40.129-27,40.129-27l-27,142.391s-3.848,11,4.388,16.5,17.584-10.462,17.584-10.462l55.553-63.214s2.194,28.046,13.2,36.281,54,5.5,72.563-8.775c0,0-24.739,64.294-22.005,81.911s25.313,21.431,25.313,21.431l-19.271,15.39Z" fill="#ed1c24" style="isolation: isolate"/>
</svg>
